<?xml version="1.0" encoding="UTF-8"?>
<svg version="1.1" xmlns="http://www.w3.org/2000/svg" width="512" height="512">
<path d="M0 0 C6.93022012 5.51497258 10.67160856 11.18265052 12 20 C12.13896539 23.3641949 12.12307809 26.72518881 12.11010742 30.09179688 C12.11065007 32.19266765 12.11123707 34.29353842 12.11186218 36.39440918 C12.11043402 37.50573715 12.10900585 38.61706512 12.10753441 39.7620697 C12.10400419 45.66955066 12.12983496 51.57693765 12.15039062 57.484375 C12.17468031 64.99161721 12.19046669 72.49858342 12.17504883 80.00585938 C12.16334019 86.0808348 12.18091276 92.15512684 12.21749306 98.22999573 C12.22606916 100.53583814 12.2240888 102.8417466 12.210989 105.14756775 C12.14347608 117.9962161 12.33224038 127.73423566 19 139 C20.11064494 141.85802138 21.01671355 144.74522349 21.875 147.6875 C22.08640625 148.37521484 22.2978125 149.06292969 22.515625 149.77148438 C24 154.68245231 24 154.68245231 24 157 C35.53553298 157.59212812 45.03997502 155.64677456 54 148 C62.5909568 138.99200646 64.47885009 131.17302558 64.30078125 119 C64.17711887 116.21284029 63.74012522 113.73573238 63.00390625 111.046875 C59.63756607 98.6405876 61.43117557 84.99798663 67.75390625 73.9296875 C69.43903882 71.2348826 71.18397436 68.60774126 73 66 C73.99 64.515 73.99 64.515 75 63 C74.27683594 62.7525 73.55367187 62.505 72.80859375 62.25 C61.20788966 57.08696063 55.16479464 45.56413822 50.76171875 34.32421875 C47.56761292 24.57810097 47.9771117 13.56436145 51.05078125 3.85546875 C52 2 52 2 55 0 C66.40134663 0 75.70751505 5.86093742 83.74609375 13.58984375 C93.69013152 24.22324289 98.24538019 36.52256887 98 51 C99.11375 50.7525 99.11375 50.7525 100.25 50.5 C114.29499006 48.62733466 127.21656976 50.89516613 139 59 C140.82094387 60.69392034 142.60003725 62.43387406 144.3359375 64.21484375 C145.65537354 65.56050415 145.65537354 65.56050415 147.00146484 66.93334961 C147.66098145 67.61534424 148.32049805 68.29733887 149 69 C149.00586624 68.37883301 149.01173248 67.75766602 149.01777649 67.11767578 C149.08191758 60.62812393 149.16639026 54.13905852 149.26245117 47.64990234 C149.29561976 45.23102244 149.32367658 42.81206665 149.34643555 40.39306641 C149.38012935 36.9075499 149.4324544 33.42272385 149.48828125 29.9375 C149.49467117 28.86322754 149.5010611 27.78895508 149.50764465 26.68212891 C149.69650819 16.94559165 152.05880312 9.10365042 159 2 C171.94374362 -8.30166861 188.56636939 -10.18763745 204.5 -10.25 C205.78648437 -10.270625 207.07296875 -10.29125 208.3984375 -10.3125 C224.75322517 -10.37831403 240.49257027 -7.11442216 253 4 C259.96099936 11.33726959 260.44017275 18.40654335 260.39872742 28.0790863 C260.40537424 29.29379878 260.41202107 30.50851125 260.41886932 31.76003319 C260.43426424 35.11924124 260.43634282 38.47797502 260.43273985 41.83718431 C260.43211505 45.46426151 260.44874497 49.09126499 260.46325684 52.7183075 C260.4860319 58.9982451 260.49792606 65.27812727 260.50238609 71.55810356 C260.50885031 80.63782902 260.53179246 89.71745434 260.55872939 98.79713941 C260.60198864 113.52905216 260.63196032 128.26096068 260.65356445 142.99291992 C260.67457672 157.30186029 260.70185399 171.61076614 260.73754883 185.91967773 C260.73974765 186.80198936 260.74194648 187.68430099 260.74421193 188.59334933 C260.75528165 193.01974024 260.76647445 197.44613083 260.77772844 201.87252128 C260.87090134 238.58165106 260.94250497 275.29079787 261 312 C261.91022415 311.06618752 261.91022415 311.06618752 262.83883667 310.11351013 C263.64080475 309.29931107 264.44277283 308.485112 265.26904297 307.64624023 C266.06148407 306.83807358 266.85392517 306.02990692 267.67037964 305.19725037 C270.6844007 302.35448723 273.37271654 300.81043159 277.125 299.0625 C278.83042969 298.24458984 278.83042969 298.24458984 280.5703125 297.41015625 C287.14509173 294.70685864 292.8397941 293.63777861 299.875 293.6875 C300.66712891 293.69096436 301.45925781 293.69442871 302.27539062 293.69799805 C308.0537093 293.80559843 312.73206244 294.46010153 318 297 C320.1718148 300.2577222 320.3278689 301.64005878 319.7265625 305.4296875 C315.96677383 318.73044527 307.76448198 329.4437642 295.9296875 336.4921875 C288.05512233 340.54496371 280.84747288 342.58983153 272 342 C272.32613281 342.55945313 272.65226562 343.11890625 272.98828125 343.6953125 C280.44702392 357.38067515 282.46602756 373.73576731 278.16796875 388.7890625 C276.74033502 392.71386158 275.11259749 396.48290278 273.3125 400.25 C273.01021484 400.89952637 272.70792969 401.54905273 272.39648438 402.21826172 C270.3946744 406.18261076 268.34477123 408.59405763 264.89990234 411.40771484 C261.37142947 414.89531893 260.40022776 417.22191126 260.0793457 422.16552734 C260.07252226 424.55587048 260.10691571 426.94657684 260.17578125 429.3359375 C260.17676315 430.61046783 260.17774506 431.88499817 260.17875671 433.19815063 C260.18450004 436.57246315 260.22164794 439.94298341 260.27856445 443.31658936 C260.35667551 448.05453079 260.4024601 452.79184668 260.41410828 457.53042603 C260.42170006 460.04607573 260.45360331 462.56180963 260.51374817 465.07675171 C260.56185544 474.06720494 258.61715664 480.45029517 253 487.515625 C235.35715885 502.81527631 213.22975042 503.45619999 191 502 C178.66534524 500.55677699 164.30559171 495.67878287 156 486 C151.4274409 479.15906955 149.86236351 473.75771588 149.79467773 465.56933594 C149.78477814 464.82748047 149.77487854 464.085625 149.76467896 463.32128906 C149.73315853 460.87568321 149.70834405 458.43005795 149.68359375 455.984375 C149.66301605 454.2861481 149.64201936 452.58792623 149.62062073 450.88970947 C149.56548433 446.4247241 149.51603793 441.95969315 149.46777344 437.49462891 C149.41749678 432.93648228 149.36184291 428.37840166 149.30664062 423.8203125 C149.19916222 414.88026475 149.09769441 405.94015964 149 397 C148.40324463 398.14670166 147.80648926 399.29340332 147.19165039 400.47485352 C146.38967519 402.00547041 145.58749979 403.53598241 144.78515625 405.06640625 C144.3941272 405.8190979 144.00309814 406.57178955 143.60021973 407.34729004 C122.07305843 448.30761701 83.08738933 478.40264388 39.52587891 492.55517578 C22.67026504 497.73714944 6.22566902 500.57239816 -11.43823242 500.02880859 C-15.93491543 499.90313518 -20.01164776 499.85019786 -24.38671875 500.96875 C-43.00541276 505.70941848 -66.54208835 502.90449086 -83.41015625 493.6953125 C-90.80287159 488.85603881 -96.47931674 482.45718558 -98.53646672 473.72203374 C-99.01412024 470.91708091 -99.11783105 468.33446246 -99.10793877 465.49042892 C-99.10662952 464.38875437 -99.10532028 463.28707981 -99.10397136 462.15202117 C-99.09744615 460.94707574 -99.09092094 459.74213031 -99.084198 458.50067139 C-99.07985648 456.52579867 -99.07551581 454.55092594 -99.071203 452.57605316 C-99.06554936 450.43463839 -99.05739824 448.29324591 -99.04854012 446.15184212 C-99.02966568 441.56475354 -99.01784276 436.97766289 -99.00721741 432.39054871 C-98.99551833 427.45023305 -98.98346452 422.50992022 -98.96924853 417.56961107 C-98.9343774 405.32002048 -98.91829973 393.07049944 -98.91360474 380.82086182 C-98.9132349 379.93485769 -98.91286507 379.04885357 -98.91248403 378.13600084 C-98.90950955 370.83982173 -98.90733326 363.54364243 -98.90558323 356.24746293 C-98.90399621 349.67653082 -98.90172655 343.10559945 -98.8984375 336.53466797 C-98.8979772 335.59781262 -98.8975169 334.66095727 -98.89704265 333.69571236 C-98.88848983 318.51533686 -98.84403642 303.33525653 -98.78726016 288.1549941 C-98.72986338 272.5661854 -98.71428826 256.97772537 -98.73666394 241.38882565 C-98.74907993 231.77521433 -98.72845589 222.1628342 -98.6653678 212.54941687 C-98.62517656 205.95952217 -98.62535338 199.37039955 -98.65716784 192.78046218 C-98.67430784 188.97910055 -98.67366603 185.17994772 -98.62482262 181.37881279 C-98.57226696 177.25333868 -98.60511921 173.13286848 -98.64596558 169.00726318 C-98.61713315 167.81124064 -98.58830072 166.6152181 -98.55859458 165.38295245 C-98.67208335 160.28725168 -98.90254555 157.22456448 -102.38104653 153.34317446 C-105.16562895 151.05790657 -108.02871951 149.03277508 -111 147 C-118.96969681 139.999563 -125.00376369 131.67772153 -131 123 C-131.5775 122.18015625 -132.155 121.3603125 -132.75 120.515625 C-140.38545751 108.81345643 -149.67111384 89.20446768 -148 75 C-146.20481603 70.01337785 -143.36295918 66.90781664 -139 64 C-135.4765625 62.70703125 -135.4765625 62.70703125 -131.625 61.8125 C-130.93599609 61.65233398 -130.24699219 61.49216797 -129.53710938 61.32714844 C-120.78143515 59.37835603 -111.74880233 57.9372143 -102.76757812 57.98144531 C-101.52427734 57.98756836 -100.28097656 57.99369141 -99 58 C-99.01571045 56.90123535 -99.0314209 55.8024707 -99.04760742 54.67041016 C-99.10235199 50.55167111 -99.13651028 46.4329635 -99.16479492 42.31396484 C-99.17978093 40.53917004 -99.20017682 38.76441163 -99.22631836 36.98974609 C-99.57762172 12.50872372 -99.57762172 12.50872372 -89.65234375 2.26171875 C-67.71628608 -16.44369714 -23.40418827 -15.12752139 0 0 Z M85 78 C83.97795361 79.65323893 82.97428214 81.31817002 82 83 C82.89460938 83.09796875 83.78921875 83.1959375 84.7109375 83.296875 C99.73019694 85.15426743 112.02131561 90.27066922 122 102 C126.49697198 107.77466319 129.75749913 114.77615771 131 122 C130.53515625 125.2421875 130.53515625 125.2421875 129 128 C123.80778261 130.29732381 118.47025391 130.3863207 112.875 130.375 C111.62529419 130.37258301 111.62529419 130.37258301 110.3503418 130.37011719 C99.95568348 130.16580942 91.05092755 126.96913669 82 122 C81.86464844 122.99257812 81.72929687 123.98515625 81.58984375 125.0078125 C79.38936766 139.4921861 74.29447737 152.06587173 63 162 C60.22309147 163.86543369 57.38651017 165.58075929 54.515625 167.296875 C48.20530408 171.56907985 44.21941433 178.80682124 42 186 C41.67 188.64 41.34 191.28 41 194 C47.93 194 54.86 194 62 194 C61.67 191.03 61.34 188.06 61 185 C64.48297535 179.89163616 70.98785417 176.3459003 76.83984375 174.3828125 C87.12416824 172.56027398 96.99796711 173.52739851 106 179 C111.62782314 183.4172405 114.38601722 187.67553013 118 194 C128.56 194 139.12 194 150 194 C150.47744922 181.19421736 150.86132746 168.39448438 151.08805561 155.58176136 C151.19696635 149.62979932 151.34419444 143.68431577 151.58422852 137.73608398 C154.15008771 109.19815727 154.15008771 109.19815727 144.25721645 83.66817379 C135.56134819 74.37206266 123.17112061 66.62177089 110.3125 65.75 C100.03459993 65.90543138 91.79799476 70.46708689 85 78 Z M12 175 C12 181.27 12 187.54 12 194 C16.29 194 20.58 194 25 194 C25.20496094 192.97519531 25.40992188 191.95039063 25.62109375 190.89453125 C26.74739583 185.26302083 27.87369792 179.63151042 29 174 C27.10590022 173.77645393 25.2095652 173.57180049 23.3125 173.375 C22.25675781 173.25898438 21.20101562 173.14296875 20.11328125 173.0234375 C16.58427979 172.80053067 16.58427979 172.80053067 12 175 Z M76 192 C75.67 192.66 75.34 193.32 75 194 C82.59 194 90.18 194 98 194 C93.87258263 189.87258263 92.19842378 188.86421604 86.6875 188.75 C82.46096509 188.79136902 79.59790842 189.66135953 76 192 Z M24 300 C16.23008146 309.14947551 11.80615009 321.35965815 11.9375 333.3125 C11.94652344 334.38113281 11.95554688 335.44976562 11.96484375 336.55078125 C11.97644531 337.35902344 11.98804688 338.16726563 12 339 C15.43970309 336.2046217 18.59837123 333.48401416 21.4375 330.0625 C44.25895947 302.78807283 80.64226877 288.49822972 114 280 C114 279.67 114 279.34 114 279 C106.86918592 278.89753459 99.73856562 278.82809338 92.60717773 278.78027344 C90.18750922 278.7603121 87.76788796 278.73313327 85.34838867 278.69824219 C60.40833443 278.34791711 41.8089035 281.38160089 24 300 Z M260 356 C260 366.89 260 377.78 260 389 C264.38169211 382.42746183 264.71494869 374.68828879 264 367 C263.19781724 363.26266297 262.18097307 359.63430403 261 356 C260.67 356 260.34 356 260 356 Z " fill="#383838" transform="translate(170,10)"/>
<path d="M0 0 C1.41751704 0.78632711 2.83488725 1.57291894 4.25219727 2.35961914 C5.04151138 2.79762344 5.8308255 3.23562775 6.64405823 3.68690491 C8.756309 4.86417769 10.86180655 6.05246989 12.96484375 7.24609375 C22.96644202 12.81821655 32.96320925 16.9539676 44 20 C45.21171875 20.3403125 46.4234375 20.680625 47.671875 21.03125 C68.49983796 25.85833154 90.37976764 23.48875807 111 19 C111 25.27 111 31.54 111 38 C115.29 38 119.58 38 124 38 C124.05607422 39.45019531 124.05607422 39.45019531 124.11328125 40.9296875 C125.00500605 58.58933542 130.55468603 73.79843118 144 86 C156.6944302 95.83214286 169.35371272 97.3925327 185 96 C196.92871374 93.83114296 206.97893746 86.8033453 214 77 C217.09479892 71.81998595 219.12282792 67.01355339 219.1328125 60.91796875 C219.13474609 59.76651367 219.13474609 59.76651367 219.13671875 58.59179688 C219.13285156 57.79837891 219.12898437 57.00496094 219.125 56.1875 C219.12886719 55.40568359 219.13273438 54.62386719 219.13671875 53.81835938 C219.13058387 50.1466362 219.00608547 46.61810577 218.4296875 42.98828125 C218.28789062 42.00214844 218.14609375 41.01601562 218 40 C218.33 39.67 218.66 39.34 219 39 C228.9 39 238.8 39 249 39 C249 66.39 249 93.78 249 122 C244.20666188 122.79888969 239.84079338 123.1453708 235.02954102 123.1418457 C233.86467918 123.14705734 233.86467918 123.14705734 232.67628479 123.15237427 C230.99687469 123.15969884 229.31745512 123.1650617 227.63803291 123.16866493 C224.96596265 123.17588376 222.29407043 123.19159335 219.62205505 123.21000671 C212.02678986 123.26219976 204.43162204 123.31034568 196.83618164 123.32592773 C192.18006212 123.33610235 187.5243925 123.36566599 182.86845207 123.40724754 C181.10854458 123.41943172 179.34857318 123.42470224 177.58862495 123.42244911 C157.66821109 123.4032338 141.3056434 127.22872708 126.44140625 141.4375 C108.5633748 160.20228181 110.71579791 186.69437023 110.78673553 210.78413391 C110.79931673 215.24103027 110.79206767 219.69776964 110.78131104 224.15466309 C110.75309455 236.81278998 110.7404916 249.47077243 110.77001953 262.12890625 C110.78624149 269.15363318 110.78102 276.17800876 110.75222325 283.20269918 C110.73523539 287.62427891 110.74396397 292.04478493 110.77227831 296.46629429 C110.78613144 299.86637442 110.76062435 303.265967 110.74121094 306.66601562 C110.75657394 307.8734845 110.77193695 309.08095337 110.7877655 310.32501221 C110.66636672 320.30412544 107.41628206 326.86563139 100.3125 333.8125 C95.62375982 337.5811855 90.61641431 339.91718651 85 342 C83.99195313 342.39445312 82.98390625 342.78890625 81.9453125 343.1953125 C62.00683898 349.78007396 37.47624869 347.88467413 18.4375 339.25 C10.35913181 334.83958773 4.10691845 328.794159 1 320 C0.15976829 316.42834868 -0.12450521 313.13060125 -0.12304783 309.46528912 C-0.12503888 308.35806427 -0.12702993 307.25083942 -0.12908131 306.1100623 C-0.12616847 304.8989778 -0.12325563 303.68789329 -0.12025452 302.44010925 C-0.12110894 301.14951814 -0.12196337 299.85892702 -0.12284368 298.52922708 C-0.12507981 294.94901685 -0.1210794 291.36883654 -0.11606562 287.78863013 C-0.11174867 283.92705958 -0.11320843 280.06549074 -0.1139679 276.20391846 C-0.11449234 269.51415291 -0.11135383 262.82439711 -0.10573006 256.13463402 C-0.09760431 246.46235014 -0.09499873 236.79007098 -0.09374207 227.11778406 C-0.09155324 211.4252811 -0.08489773 195.73278334 -0.07543945 180.0402832 C-0.06626096 164.79614284 -0.05918226 149.55200389 -0.05493164 134.30786133 C-0.05466892 133.36827134 -0.05440619 132.42868135 -0.05413551 131.46061894 C-0.05283047 126.74698967 -0.05156677 122.0333604 -0.05032361 117.31973112 C-0.03995626 78.21315044 -0.02234254 39.10657556 0 0 Z " fill="#3D3C3D" transform="translate(71,166)"/>
<path d="M0 0 C6.93022012 5.51497258 10.67160856 11.18265052 12 20 C12.13896539 23.3641949 12.12307809 26.72518881 12.11010742 30.09179688 C12.11065007 32.19266765 12.11123707 34.29353842 12.11186218 36.39440918 C12.11043402 37.50573715 12.10900585 38.61706512 12.10753441 39.7620697 C12.10400419 45.66955066 12.12983496 51.57693765 12.15039062 57.484375 C12.17468031 64.99161721 12.19046669 72.49858342 12.17504883 80.00585938 C12.16334019 86.0808348 12.18091276 92.15512684 12.21749306 98.22999573 C12.22606916 100.53583814 12.2240888 102.8417466 12.210989 105.14756775 C12.14347608 117.9962161 12.33224038 127.73423566 19 139 C20.11064494 141.85802138 21.01671355 144.74522349 21.875 147.6875 C22.08640625 148.37521484 22.2978125 149.06292969 22.515625 149.77148438 C24 154.68245231 24 154.68245231 24 157 C35.53553298 157.59212812 45.03997502 155.64677456 54 148 C62.5909568 138.99200646 64.47885009 131.17302558 64.30078125 119 C64.17711887 116.21284029 63.74012522 113.73573238 63.00390625 111.046875 C59.63756607 98.6405876 61.43117557 84.99798663 67.75390625 73.9296875 C69.43903882 71.2348826 71.18397436 68.60774126 73 66 C73.99 64.515 73.99 64.515 75 63 C74.27683594 62.7525 73.55367187 62.505 72.80859375 62.25 C61.20788966 57.08696063 55.16479464 45.56413822 50.76171875 34.32421875 C47.56761292 24.57810097 47.9771117 13.56436145 51.05078125 3.85546875 C52 2 52 2 55 0 C66.40134663 0 75.70751505 5.86093742 83.74609375 13.58984375 C93.69013152 24.22324289 98.24538019 36.52256887 98 51 C99.11375 50.7525 99.11375 50.7525 100.25 50.5 C116.11405912 48.38479212 129.23809366 51.91592333 142.1328125 61.2734375 C146.53460083 64.86300344 150.05578384 68.34334572 150.79296875 74.1640625 C151.27649298 84.38353653 151.27649298 84.38353653 148.4453125 87.96875 C147.96835937 88.3090625 147.49140625 88.649375 147 89 C144.04817521 87.68049681 142.08571742 86.28957001 139.8984375 83.91796875 C139.3305249 83.31750732 138.7626123 82.7170459 138.17749023 82.09838867 C137.58266846 81.46779541 136.98784668 80.83720215 136.375 80.1875 C128.66362826 72.23863854 121.58597086 67.51430311 110.3125 66.75 C101.24666605 66.88710146 93.81092065 70.44891485 87.25 76.5625 C84.89908089 78.98154715 84.89908089 78.98154715 83 82 C83.82242188 82.09796875 84.64484375 82.1959375 85.4921875 82.296875 C101.64218238 84.46015376 114.28008894 90.91458115 124.46875 103.8671875 C128.58218818 109.91193507 132.53404689 117.7794741 131.59765625 125.1796875 C129.59986338 128.70635364 128.06259372 129.35277157 124.28271484 130.51220703 C120.44141788 131.33305316 116.73141459 131.48718767 112.8125 131.4375 C111.98459961 131.43137695 111.15669922 131.42525391 110.30371094 131.41894531 C100.2880612 131.16651521 91.4026254 128.47147701 83 123 C81.70544477 125.58911047 81.67744998 127.86617457 81.375 130.75 C79.38813684 143.87489899 72.32811488 155.85564162 61.6015625 163.76953125 C60.07892243 164.76860572 58.54553574 165.75156713 57 166.71484375 C47.07674596 173.09130973 44.03502912 183.20878536 41 194 C50.9 193.505 50.9 193.505 61 193 C60.67 192.34 60.34 191.68 60 191 C59.625 188.1875 59.625 188.1875 60 185 C64.72056646 178.95177422 71.68241621 175.0242031 79 173 C88.8198292 171.94230865 97.50365289 172.73688369 106 178 C114.427137 184.90401002 119.18734432 192.24654265 121 203 C122.1948224 216.00425387 121.11715654 226.67222589 112.6875 237.125 C105.14084043 245.5101773 95.25415433 252.16576389 83.7277832 253.20483398 C67.37621374 253.84919043 55.65962543 251.87381599 42.73828125 241.1171875 C37.6950993 236.37179344 34.26021358 231.0740884 31 225 C30.4121875 223.94425781 30.4121875 223.94425781 29.8125 222.8671875 C25.55816242 214.89030453 24.61262647 207.24154528 24.625 198.3125 C24.62371094 197.34876465 24.62242187 196.3850293 24.62109375 195.39208984 C24.73514238 187.66399884 25.9719551 181.16457052 29 174 C20.79429017 173.44989655 13.89046425 174.54006155 6.03125 176.9296875 C-25.99671543 185.97492981 -59.55412084 179.09129504 -88.02734375 163.28125 C-118.29186591 146.06564016 -137.27936134 119.10851243 -147 86 C-148.35852079 81.0528888 -148.64114709 76.78096415 -146.875 71.875 C-142.90839007 65.79286478 -138.59355584 63.4309577 -131.625 61.8125 C-130.93599609 61.65233398 -130.24699219 61.49216797 -129.53710938 61.32714844 C-120.78143515 59.37835603 -111.74880233 57.9372143 -102.76757812 57.98144531 C-101.52427734 57.98756836 -100.28097656 57.99369141 -99 58 C-99.01571045 56.90123535 -99.0314209 55.8024707 -99.04760742 54.67041016 C-99.10235199 50.55167111 -99.13651028 46.4329635 -99.16479492 42.31396484 C-99.17978093 40.53917004 -99.20017682 38.76441163 -99.22631836 36.98974609 C-99.57762172 12.50872372 -99.57762172 12.50872372 -89.65234375 2.26171875 C-67.71628608 -16.44369714 -23.40418827 -15.12752139 0 0 Z M76 192 C75.67 192.66 75.34 193.32 75 194 C82.59 194 90.18 194 98 194 C93.87258263 189.87258263 92.19842378 188.86421604 86.6875 188.75 C82.46096509 188.79136902 79.59790842 189.66135953 76 192 Z " fill="#82B932" transform="translate(170,10)"/>
<path d="M0 0 C1.72101729 0.01477446 3.442047 0.02817035 5.16308594 0.04016113 C9.3277875 0.07212057 13.49187678 0.12259141 17.65625 0.18359375 C17.84414774 14.6231006 17.9841629 29.06241458 18.07074738 43.50289822 C18.11178652 50.20982017 18.16863311 56.91586457 18.25976562 63.62231445 C18.34731429 70.10632909 18.39465516 76.58955331 18.41526794 83.07411385 C18.42993866 85.53588347 18.45858489 87.99761461 18.50209045 90.4590435 C18.75919118 105.62164319 17.7466326 117.16174269 9.65625 130.18359375 C8.88626521 131.47264879 8.11668989 132.76194851 7.34753418 134.05149841 C-18.18497023 175.84311883 -58.78603414 205.50354121 -106.34375 217.18359375 C-120.21037988 220.4660084 -134.07664767 222.44590939 -148.34375 221.18359375 C-149.00375 220.52359375 -149.66375 219.86359375 -150.34375 219.18359375 C-149.5703125 218.89226562 -148.796875 218.6009375 -148 218.30078125 C-136.31314373 213.70125118 -129.04517213 208.58643802 -123.34375 197.18359375 C-123.25336631 195.40000124 -123.22788413 193.61297749 -123.2326355 191.82710266 C-123.2329628 190.6901445 -123.2332901 189.55318634 -123.23362732 188.3817749 C-123.23886917 187.12826233 -123.24411102 185.87474976 -123.24951172 184.58325195 C-123.25157554 182.56381761 -123.25362762 180.54438323 -123.25523877 178.52494848 C-123.25759351 176.34977564 -123.26208884 174.17461392 -123.26678085 171.99944496 C-123.27517728 167.46486599 -123.269756 162.93037188 -123.26077271 158.39579773 C-123.2593017 157.63065064 -123.25783069 156.86550356 -123.25631511 156.07717019 C-123.25324422 154.51227115 -123.25012419 152.9473722 -123.24695611 151.38247335 C-123.22577078 140.8239785 -123.21203925 130.26575925 -123.24414062 119.70727539 C-123.26568602 112.58779577 -123.262499 105.46880227 -123.23073208 98.34935445 C-123.21489342 94.5823187 -123.21161507 90.8162122 -123.23849106 87.04921913 C-123.26357516 83.50205623 -123.25591708 79.95644713 -123.22361183 76.40935707 C-123.21465013 74.49388944 -123.24026103 72.57835676 -123.26704407 70.66305542 C-123.18511468 64.97914533 -123.11361637 61.22208264 -118.97293091 57.0743866 C-117.7684818 56.10419999 -116.55892498 55.14031183 -115.34375 54.18359375 C-114.33728719 53.04039163 -113.35389184 51.8760087 -112.40625 50.68359375 C-95.24801136 30.31736316 -68.87039354 16.3498121 -44.34375 7.18359375 C-42.97331543 6.65644775 -42.97331543 6.65644775 -41.57519531 6.11865234 C-27.51079258 0.88532953 -14.82816497 -0.22390378 0 0 Z " fill="#238442" transform="translate(303.34375,288.81640625)"/>
<path d="M0 0 C12.79853483 3.16199096 23.03630658 12.17449578 30.1875 22.96875 C34.95670621 31.69538263 36.82272351 40.83431309 36.65625 50.65625 C37.39875 50.49125 38.14125 50.32625 38.90625 50.15625 C54.77030912 48.04104212 67.89434366 51.57217333 80.7890625 60.9296875 C85.19085083 64.51925344 88.71203384 67.99959572 89.44921875 73.8203125 C89.93274298 84.03978653 89.93274298 84.03978653 87.1015625 87.625 C86.38613281 88.13546875 86.38613281 88.13546875 85.65625 88.65625 C82.70442521 87.33674681 80.74196742 85.94582001 78.5546875 83.57421875 C77.9867749 82.97375732 77.4188623 82.3732959 76.83374023 81.75463867 C76.23891846 81.12404541 75.64409668 80.49345215 75.03125 79.84375 C67.31987826 71.89488854 60.24222086 67.17055311 48.96875 66.40625 C39.90291605 66.54335146 32.46717065 70.10516485 25.90625 76.21875 C23.55533089 78.63779715 23.55533089 78.63779715 21.65625 81.65625 C22.47867188 81.75421875 23.30109375 81.8521875 24.1484375 81.953125 C40.29843238 84.11640376 52.93633894 90.57083115 63.125 103.5234375 C67.23843818 109.56818507 71.19029689 117.4357241 70.25390625 124.8359375 C68.25611338 128.36260364 66.71884372 129.00902157 62.93896484 130.16845703 C59.09766788 130.98930316 55.38766459 131.14343767 51.46875 131.09375 C50.64084961 131.08762695 49.81294922 131.08150391 48.95996094 131.07519531 C38.9443112 130.82276521 30.0588754 128.12772701 21.65625 122.65625 C20.36169477 125.24536047 20.33369998 127.52242457 20.03125 130.40625 C18.04438684 143.53114899 10.98436488 155.51189162 0.2578125 163.42578125 C-1.26482757 164.42485572 -2.79821426 165.40781713 -4.34375 166.37109375 C-14.26700404 172.74755973 -17.30872088 182.86503536 -20.34375 193.65625 C-10.44375 193.16125 -10.44375 193.16125 -0.34375 192.65625 C-0.67375 191.99625 -1.00375 191.33625 -1.34375 190.65625 C-1.71875 187.84375 -1.71875 187.84375 -1.34375 184.65625 C3.37681646 178.60802422 10.33866621 174.6804531 17.65625 172.65625 C27.4760792 171.59855865 36.15990289 172.39313369 44.65625 177.65625 C53.083387 184.56026002 57.84359432 191.90279265 59.65625 202.65625 C60.8510724 215.66050387 59.77340654 226.32847589 51.34375 236.78125 C43.79709043 245.1664273 33.91040433 251.82201389 22.3840332 252.86108398 C6.03246374 253.50544043 -5.68412457 251.53006599 -18.60546875 240.7734375 C-23.6486507 236.02804344 -27.08353642 230.7303384 -30.34375 224.65625 C-30.735625 223.95242187 -31.1275 223.24859375 -31.53125 222.5234375 C-35.78558758 214.54655453 -36.73112353 206.89779528 -36.71875 197.96875 C-36.72003906 197.00501465 -36.72132813 196.0412793 -36.72265625 195.04833984 C-36.60860762 187.32024884 -35.3717949 180.82082052 -32.34375 173.65625 C-34.32375 173.65625 -36.30375 173.65625 -38.34375 173.65625 C-39.47628652 167.42729914 -39.04741626 162.73876096 -37.34375 156.65625 C-36.66570312 156.69105469 -35.98765625 156.72585937 -35.2890625 156.76171875 C-24.50181093 157.07547537 -15.6667965 154.75940657 -7.34375 147.65625 C1.2472068 138.64825646 3.13510009 130.82927558 2.95703125 118.65625 C2.83336887 115.86909029 2.39637522 113.39198238 1.66015625 110.703125 C-1.70618393 98.2968376 0.08742557 84.65423663 6.41015625 73.5859375 C8.09528882 70.8911326 9.84022436 68.26399126 11.65625 65.65625 C12.64625 64.17125 12.64625 64.17125 13.65625 62.65625 C12.93308594 62.40875 12.20992187 62.16125 11.46484375 61.90625 C-0.13586034 56.74321063 -6.17895536 45.22038822 -10.58203125 33.98046875 C-13.77613708 24.23435097 -13.3666383 13.22061145 -10.29296875 3.51171875 C-7.98653203 -0.9967481 -4.48657144 -0.64093878 0 0 Z M14.65625 191.65625 C14.32625 192.31625 13.99625 192.97625 13.65625 193.65625 C21.24625 193.65625 28.83625 193.65625 36.65625 193.65625 C32.52883263 189.52883263 30.85467378 188.52046604 25.34375 188.40625 C21.11721509 188.44761902 18.25415842 189.31760953 14.65625 191.65625 Z " fill="#93C942" transform="translate(231.34375,10.34375)"/>
<path d="M0 0 C6.93021616 5.51496942 10.67161718 11.18270435 12 20 C12.14078492 23.37178135 12.12623508 26.74024095 12.11352539 30.11450195 C12.11367142 31.12960342 12.11381744 32.1447049 12.1139679 33.19056702 C12.11327223 36.53982697 12.10549597 39.88903104 12.09765625 43.23828125 C12.09579084 45.56284047 12.09436752 47.88740008 12.09336853 50.21195984 C12.08955302 56.32590829 12.07973095 62.43983292 12.06866455 68.55377197 C12.05842968 74.79430825 12.05386646 81.03484837 12.04882812 87.27539062 C12.03810784 99.51693754 12.02104299 111.75846679 12 124 C9.33279107 121.4288479 7.48553824 118.76316002 5.5 115.625 C-13.4818236 86.89200194 -41.73526084 68.61584274 -75.234375 61.29296875 C-81.87272089 60.07242632 -88.52688197 59.60675714 -95.26171875 59.24609375 C-98 59 -98 59 -99 58 C-99.12611199 55.30521609 -99.18870608 52.6375565 -99.203125 49.94140625 C-99.20882507 49.12308823 -99.21452515 48.3047702 -99.22039795 47.46165466 C-99.22987002 45.72062478 -99.23639064 43.97957679 -99.24023438 42.23852539 C-99.24984619 39.60464761 -99.28080756 36.97158186 -99.3125 34.33789062 C-99.39582099 21.56124513 -98.95749216 11.86849272 -89.65234375 2.26171875 C-67.71628608 -16.44369714 -23.40418827 -15.12752139 0 0 Z " fill="#565656" transform="translate(170,10)"/>
<path d="M0 0 C39.05768372 0.61658837 72.06990242 11.78934377 100 40 C110.95639684 51.5678398 120.39683813 66.04450177 126 81 C126.22945313 81.60553711 126.45890625 82.21107422 126.6953125 82.83496094 C129.90039115 91.47602168 131.98429125 98.72687654 130 108 C125.54572271 108 125.54572271 108 122.6875 105.6875 C120.00164643 103.52190862 117.30579396 102.27081862 114.12573242 100.95776367 C109.53038145 98.88729602 105.19037572 96.30167779 100.8125 93.8125 C99.7925293 93.23459717 98.77255859 92.65669434 97.72167969 92.0612793 C90.59649929 87.99128989 83.70727712 83.73235664 77 79 C74.18138053 76.9178377 74.18138053 76.9178377 71.30078125 76.15625 C67.24991656 74.73724888 63.84486237 72.71963183 60.1875 70.5 C58.68122651 69.59726081 57.17470881 68.69492899 55.66796875 67.79296875 C54.89888184 67.33067871 54.12979492 66.86838867 53.33740234 66.39208984 C51.04555253 65.02712978 48.73964131 63.69053087 46.42578125 62.36328125 C38.89531628 58.03464257 31.54026864 53.77491806 25 48 C24.41476563 47.49597656 23.82953125 46.99195313 23.2265625 46.47265625 C11.31438268 35.44984732 3.37925177 19.75351669 0 4 C0 2.68 0 1.36 0 0 Z " fill="#98CD4B" transform="translate(63,68)"/>
<path d="M0 0 C-0.38671875 0.57105469 -0.7734375 1.14210937 -1.171875 1.73046875 C-5.56283143 8.56688359 -7.8354529 15.17432973 -10 23 C-0.1 22.505 -0.1 22.505 10 22 C9.505 21.01 9.505 21.01 9 20 C8.625 17.1875 8.625 17.1875 9 14 C13.72056646 7.95177422 20.68241621 4.0242031 28 2 C37.8198292 0.94230865 46.50365289 1.73688369 55 7 C63.427137 13.90401002 68.18734432 21.24654265 70 32 C71.1948224 45.00425387 70.11715654 55.67222589 61.6875 66.125 C54.14084043 74.5101773 44.25415433 81.16576389 32.7277832 82.20483398 C16.37621374 82.84919043 4.65962543 80.87381599 -8.26171875 70.1171875 C-13.3049007 65.37179344 -16.73978642 60.0740884 -20 54 C-20.391875 53.29617187 -20.78375 52.59234375 -21.1875 51.8671875 C-25.44183758 43.89030453 -26.38737353 36.24154528 -26.375 27.3125 C-26.37628906 26.34876465 -26.37757813 25.3850293 -26.37890625 24.39208984 C-26.26485762 16.66399884 -25.0280449 10.16457052 -22 3 C-20.87980469 2.79503906 -19.75960937 2.59007812 -18.60546875 2.37890625 C-17.13279176 2.10688311 -15.66013664 1.83474151 -14.1875 1.5625 C-13.44951172 1.42779297 -12.71152344 1.29308594 -11.95117188 1.15429688 C-2.04853289 -0.6828443 -2.04853289 -0.6828443 0 0 Z M25 21 C24.67 21.66 24.34 22.32 24 23 C31.59 23 39.18 23 47 23 C42.87258263 18.87258263 41.19842378 17.86421604 35.6875 17.75 C31.46096509 17.79136902 28.59790842 18.66135953 25 21 Z " fill="#98CC41" transform="translate(221,181)"/>
<path d="M0 0 C0.79212891 0.00346436 1.58425781 0.00692871 2.40039062 0.01049805 C8.1787093 0.11809843 12.85706244 0.77260153 18.125 3.3125 C20.2968148 6.5702222 20.4528689 7.95255878 19.8515625 11.7421875 C16.09177383 25.04294527 7.88948198 35.7562642 -3.9453125 42.8046875 C-11.81987767 46.85746371 -19.02752712 48.90233153 -27.875 48.3125 C-27.54886719 48.87195313 -27.22273438 49.43140625 -26.88671875 50.0078125 C-19.27845095 63.9675251 -17.59176304 80.10212711 -21.875 95.40234375 C-23.52532331 100.20504244 -25.612843 104.77030334 -27.875 109.3125 C-29.195 109.3125 -30.515 109.3125 -31.875 109.3125 C-32.205 107.3325 -32.535 105.3525 -32.875 103.3125 C-33.865 103.3125 -34.855 103.3125 -35.875 103.3125 C-36.37 99.3525 -36.37 99.3525 -36.875 95.3125 C-37.535 95.3125 -38.195 95.3125 -38.875 95.3125 C-38.730625 94.64605469 -38.58625 93.97960937 -38.4375 93.29296875 C-35.68805264 79.64119885 -36.03528352 66.49860345 -43.6875 54.3125 C-49.69548298 46.27700912 -56.01349263 42.5121846 -65.875 40.3125 C-75.51636879 39.02523278 -83.288043 41.67603741 -91.25 47.0625 C-96.05949676 50.88094894 -97.97743729 55.61981186 -99.875 61.3125 C-100.66173023 68.45755818 -99.63293972 74.15872168 -95.875 80.3125 C-92.52099687 84.25345367 -89.57040856 86.95255414 -84.359375 87.6484375 C-78.52035307 87.7318521 -74.71490526 87.11755823 -69.65234375 84.21875 C-66.90544404 82.81813301 -64.87515866 82.76701661 -61.875 83.3125 C-59.5 84.875 -59.5 84.875 -57.875 87.3125 C-57.25 90.75 -57.25 90.75 -57.875 94.3125 C-62.81283844 99.90005402 -69.69258043 102.85063772 -77.05859375 103.6640625 C-87.36171073 103.93104551 -95.77620938 102.18732183 -103.76953125 95.453125 C-112.03492154 87.04972263 -115.83172014 76.95638733 -116.3125 65.3125 C-115.95712761 53.36889764 -110.19576361 43.19093041 -101.6875 35.0625 C-90.85984941 25.89642817 -77.74822347 23.16902676 -63.875 24.3125 C-57.08959938 25.78569393 -51.02918623 28.12110179 -44.875 31.3125 C-44.648125 30.4875 -44.42125 29.6625 -44.1875 28.8125 C-39.54744115 16.43900973 -30.96865589 9.38254728 -19.33984375 3.7578125 C-12.7585047 1.01249633 -7.05395463 -0.0498539 0 0 Z " fill="#A6D955" transform="translate(469.875,303.6875)"/>
<path d="M0 0 C2.89242554 2.35882568 2.89242554 2.35882568 3.61395264 5.45935059 C3.60062897 6.67624573 3.5873053 7.89314087 3.57357788 9.14691162 C3.57489212 10.15728233 3.57489212 10.15728233 3.57623291 11.18806458 C3.57206277 13.40763619 3.52545006 15.62415946 3.47836304 17.84320068 C3.46716855 19.384464 3.45862955 20.9257487 3.45263672 22.46704102 C3.42975734 26.51838412 3.37084445 30.56843086 3.30441284 34.6192627 C3.24296948 38.75492821 3.21561749 42.89080379 3.18539429 47.02679443 C3.12109801 55.1380656 3.01873208 63.24828427 2.89242554 71.35882568 C-0.73327841 69.22616957 -3.95245418 66.93094125 -7.23257446 64.29632568 C-19.38347251 55.15337054 -32.84685812 48.92616651 -47.34976196 44.51507568 C-50.35798192 43.58946954 -53.20087492 42.5493256 -56.10757446 41.35882568 C-56.25597256 35.87798931 -56.36481209 30.39832326 -56.43716431 24.91595459 C-56.46732525 23.05148958 -56.50826138 21.18716632 -56.56021118 19.32318115 C-56.63306163 16.6419989 -56.66703564 13.96269245 -56.69351196 11.28070068 C-56.72447968 10.44826843 -56.75544739 9.61583618 -56.78735352 8.75817871 C-56.7886806 6.47258417 -56.72851352 4.55934466 -56.10757446 2.35882568 C-43.03745578 -8.92593889 -14.5731963 -7.69640624 0 0 Z " fill="#393839" transform="translate(153.10757446289063,29.64117431640625)"/>
<path d="M0 0 C3.79165074 -0.0289337 7.58327327 -0.04677601 11.375 -0.0625 C12.45523438 -0.07087891 13.53546875 -0.07925781 14.6484375 -0.08789062 C16.1953125 -0.09272461 16.1953125 -0.09272461 17.7734375 -0.09765625 C18.72653809 -0.10289307 19.67963867 -0.10812988 20.66162109 -0.11352539 C23 0 23 0 25 1 C29.14503661 1.24787017 29.14503661 1.24787017 33 0 C37.45200322 -0.32499377 41.91260967 -0.3244997 46.375 -0.375 C48.24285156 -0.43107422 48.24285156 -0.43107422 50.1484375 -0.48828125 C51.3446875 -0.49988281 52.5409375 -0.51148438 53.7734375 -0.5234375 C54.87091309 -0.54325684 55.96838867 -0.56307617 57.09912109 -0.58349609 C60 0 60 0 62.27978516 2.37255859 C63.1312915 3.67314209 63.1312915 3.67314209 64 5 C64.5775 5.845625 65.155 6.69125 65.75 7.5625 C68.27795668 14.51438086 68.05224568 21.55837527 65 28.3125 C59.71181613 37.5408993 51.93986696 41.73797289 41.95703125 44.58203125 C33.27450683 46.43638277 25.34486537 44.07961595 17.76953125 39.71484375 C8.33528025 33.16378745 2.16052676 23.26410556 0 12 C-0.06743348 9.91765408 -0.08514472 7.83331443 -0.0625 5.75 C-0.04896484 4.13351563 -0.04896484 4.13351563 -0.03515625 2.484375 C-0.02355469 1.66453125 -0.01195312 0.8446875 0 0 Z " fill="#3B3B3A" transform="translate(210,204)"/>
<path d="M0 0 C11.35080608 -2.01003858 22.77270542 2.73017163 32 9 C41.42919194 17.01884272 48.85274821 26.51597796 51 39 C50.59765625 42.1796875 50.59765625 42.1796875 49 45 C43.82209012 48.332953 37.79192862 48.51451983 31.8125 48.4375 C30.98314941 48.42992676 30.15379883 48.42235352 29.29931641 48.41455078 C22.04355859 48.22209409 15.67953431 46.92229626 9 44 C8.113125 43.64550781 7.22625 43.29101562 6.3125 42.92578125 C3.54788648 41.52132214 1.94137446 40.43324736 0 38 C-1.2650798 34.08327941 -2.02286638 30.33438057 -2.5625 26.265625 C-2.80390607 23.12178203 -2.80390607 23.12178203 -4 21 C-4.6553959 13.79064507 -4.07060202 6.10590303 0 0 Z " fill="#5DA72E" transform="translate(251,93)"/>
<path d="M0 0 C21.39742682 12.83845609 36.6349539 41.56125666 42.63720703 65.0859375 C43.46491828 69.45286629 42.92120562 73.69495989 42 78 C35.01506424 78 30.485311 72.60437742 25.5625 68 C9.69937414 51.72591233 -0.01950435 26.39639932 -0.125 3.75 C-0.08375 2.5125 -0.0425 1.275 0 0 Z " fill="#AADD58" transform="translate(151,98)"/>
<path d="M0 0 C0.99 0.33 1.98 0.66 3 1 C2.78424639 11.78768069 -3.40711099 22.40966484 -10.78125 30.0390625 C-20.05895719 38.23872625 -31.96039831 44.09435664 -44.57421875 43.65625 C-48.39674144 42.62213758 -49.9590033 40.35813582 -52.07421875 37.140625 C-53 35 -53 35 -53 31 C-52.33806641 30.6189209 -51.67613281 30.2378418 -50.99414062 29.84521484 C-38.50214663 22.65135664 -26.01778924 15.44477675 -13.5625 8.1875 C-12.54542969 7.59565918 -11.52835937 7.00381836 -10.48046875 6.39404297 C-9.53945313 5.84506348 -8.5984375 5.29608398 -7.62890625 4.73046875 C-6.80463135 4.24989014 -5.98035645 3.76931152 -5.13110352 3.27416992 C-3.38970715 2.23300282 -1.68815812 1.12543875 0 0 Z " fill="#8BC132" transform="translate(487,309)"/>
<path d="M0 0 C11.50985311 0.4216972 21.42644054 8.03185172 29 16 C37.95274218 26.44201286 41.20167603 38.48770631 41 52 C35.06 54.475 35.06 54.475 29 57 C21.53793757 44.10910653 14.08896458 31.21151572 6.75 18.25 C6.21415283 17.30568115 5.67830566 16.3613623 5.1262207 15.38842773 C2.63380923 10.97606112 0.20589571 6.56288016 -2 2 C-1.34 1.34 -0.68 0.68 0 0 Z " fill="#89BF33" transform="translate(227,10)"/>
<path d="M0 0 C3.59372771 1.36153596 6.90061119 2.9614773 10.25390625 4.8359375 C11.76960205 5.68248901 11.76960205 5.68248901 13.31591797 6.54614258 C14.38729004 7.14966553 15.45866211 7.75318848 16.5625 8.375 C17.66480957 8.99334717 18.76711914 9.61169434 19.90283203 10.2487793 C27.98787473 14.80716899 35.97847521 19.50645485 43.89282227 24.35498047 C45.04028931 25.05518311 45.04028931 25.05518311 46.2109375 25.76953125 C46.87399902 26.17792236 47.53706055 26.58631348 48.22021484 27.00708008 C50.13802571 28.14936299 50.13802571 28.14936299 53 29 C52.4375 30.875 52.4375 30.875 51 33 C38.77924379 37.48990267 23.74190379 36.13708291 12 31 C11.113125 30.64550781 10.22625 30.29101562 9.3125 29.92578125 C5.13292923 27.80250571 3.39523454 26.09674407 1.78515625 21.62890625 C0.2201365 14.46731816 -0.46586916 7.33312562 0 0 Z " fill="#1B8543" transform="translate(248,106)"/>
<path d="M0 0 C0.99 0 1.98 0 3 0 C3.33 2.64 3.66 5.28 4 8 C4.99 8 5.98 8 7 8 C7.33 9.98 7.66 11.96 8 14 C8.99 14 9.98 14 11 14 C9.58330822 19.19453651 6.07891809 22.66182883 2 26 C1.34 26 0.68 26 0 26 C0 17.42 0 8.84 0 0 Z " fill="#358737" transform="translate(430,399)"/>
<path d="M0 0 C-1.25240716 3.89637782 -3.47940809 4.84915988 -6.91625977 6.7421875 C-10.93686704 9.16915512 -14.52528417 12.19643499 -18.1875 15.125 C-19.76175828 16.38082586 -21.33849324 17.63355479 -22.91796875 18.8828125 C-23.60656982 19.43340332 -24.2951709 19.98399414 -25.00463867 20.55126953 C-26.93475883 21.95263171 -28.83811931 23.00239506 -31 24 C-31.99 23.01 -32.98 22.02 -34 21 C-32.66801127 17.0040338 -31.02185737 16.57986563 -27.390625 14.53125 C-26.54488922 14.04887878 -26.54488922 14.04887878 -25.68206787 13.5567627 C-23.87612427 12.52919469 -22.06335524 11.51442074 -20.25 10.5 C-19.04378876 9.81725724 -17.83805361 9.13367262 -16.6328125 8.44921875 C-14.40427412 7.18408013 -12.17272356 5.92502495 -9.93847656 4.66992188 C-8.01768752 3.57834684 -6.11695784 2.45048208 -4.24121094 1.28320312 C-2 0 -2 0 0 0 Z " fill="#74B037" transform="translate(467,322)"/>
<path d="M0 0 C0.8559375 0.28746094 1.711875 0.57492187 2.59375 0.87109375 C5.88786358 1.96283552 9.1882285 3.02560011 12.5 4.0625 C13.5828125 4.40410156 14.665625 4.74570312 15.78125 5.09765625 C18.84893523 5.95765053 21.85008714 6.53984707 25 7 C24.0919838 8.13199353 23.17316174 9.25532363 22.25 10.375 C21.73953125 11.00148438 21.2290625 11.62796875 20.703125 12.2734375 C18.90849037 14.09276893 17.29186068 14.92026058 15 16 C12.49599357 13.5248518 9.99748094 11.04423106 7.5 8.5625 C6.78457031 7.85544922 6.06914062 7.14839844 5.33203125 6.41992188 C4.65527344 5.74638672 3.97851562 5.07285156 3.28125 4.37890625 C2.65283203 3.7557251 2.02441406 3.13254395 1.37695312 2.49047852 C0 1 0 1 0 0 Z " fill="#050603" transform="translate(220,257)"/>
<path d="M0 0 C6.98021252 1.24092667 13.00986624 4.99181874 18 10 C18.31640625 12.76171875 18.31640625 12.76171875 18 15 C13.545 15.495 13.545 15.495 9 16 C8.67 12.7 8.34 9.4 8 6 C5.36 5.34 2.72 4.68 0 4 C0 2.68 0 1.36 0 0 Z " fill="#459239" transform="translate(175,168)"/>
<path d="M0 0 C1.5778125 0.433125 1.5778125 0.433125 3.1875 0.875 C2.2794838 2.00699353 1.36066174 3.13032363 0.4375 4.25 C-0.07296875 4.87648438 -0.5834375 5.50296875 -1.109375 6.1484375 C-2.89449481 7.95812318 -4.49199644 8.87617455 -6.8125 9.875 C-7.4725 8.555 -8.1325 7.235 -8.8125 5.875 C-4.75096154 -0.15576923 -4.75096154 -0.15576923 0 0 Z " fill="#141313" transform="translate(241.8125,263.125)"/>
<path d="M0 0 C0.99 0.33 1.98 0.66 3 1 C3 1.66 3 2.32 3 3 C3.66 3 4.32 3 5 3 C5.75 5.25 5.75 5.25 6 8 C4.1875 10.3125 4.1875 10.3125 2 12 C1.34 12 0.68 12 0 12 C0 8.04 0 4.08 0 0 Z " fill="#096C40" transform="translate(430,413)"/>
<path d="M0 0 C0.66 0.33 1.32 0.66 2 1 C-4.93 7.93 -11.86 14.86 -19 22 C-19 17.63604688 -16.29697402 15.68537662 -13.4375 12.6875 C-12.8919043 12.10589111 -12.34630859 11.52428223 -11.78417969 10.92504883 C-8.06375023 7.00117561 -4.23602964 3.36956903 0 0 Z " fill="#327241" transform="translate(201,330)"/>
<path d="M0 0 C-1.25997968 3.91993678 -3.58704113 5.06244198 -7.11328125 6.91796875 C-10.05600691 8.60561887 -12.45532225 10.7656488 -15 13 C-15.66 12.67 -16.32 12.34 -17 12 C-13.10791681 6.70371425 -7.12719988 0 0 0 Z " fill="#7CB538" transform="translate(467,322)"/>
<path d="M0 0 C0.99 0 1.98 0 3 0 C3.33 2.64 3.66 5.28 4 8 C4.99 8 5.98 8 7 8 C7 8.99 7 9.98 7 11 C6.01 11 5.02 11 4 11 C4 10.34 4 9.68 4 9 C2.68 8.34 1.36 7.68 0 7 C0 4.69 0 2.38 0 0 Z " fill="#509734" transform="translate(430,399)"/>
<path d="M0 0 C1.485 0.99 1.485 0.99 3 2 C3 2.99 3 3.98 3 5 C3.99 5.33 4.98 5.66 6 6 C6 6.99 6 7.98 6 9 C6.66 9 7.32 9 8 9 C9.625 10.3125 9.625 10.3125 11 12 C11 12.99 11 13.98 11 15 C10.01 15.33 9.02 15.66 8 16 C6.66141476 13.71125827 5.32898986 11.41930344 4 9.125 C3.6184375 8.47402344 3.236875 7.82304688 2.84375 7.15234375 C0 2.2265625 0 2.2265625 0 0 Z " fill="#63A538" transform="translate(248,51)"/>
<path d="M0 0 C0.33 0 0.66 0 1 0 C1 7.26 1 14.52 1 22 C-0.32 21.34 -1.64 20.68 -3 20 C-3 17 -3 17 -1 15 C-0.69400937 12.43083343 -0.48912913 9.95241616 -0.375 7.375 C-0.33632813 6.66859375 -0.29765625 5.9621875 -0.2578125 5.234375 C-0.16352276 3.49001476 -0.08067109 1.74504309 0 0 Z " fill="#57942E" transform="translate(320,81)"/>
<path d="M0 0 C0.66 0 1.32 0 2 0 C2 0.66 2 1.32 2 2 C4.31 2.66 6.62 3.32 9 4 C8.625 5.9375 8.625 5.9375 8 8 C7.01 8.495 7.01 8.495 6 9 C5.67 7.68 5.34 6.36 5 5 C4.34 5 3.68 5 3 5 C3 4.34 3 3.68 3 3 C2.01 2.67 1.02 2.34 0 2 C0 1.34 0 0.68 0 0 Z " fill="#247B39" transform="translate(430,411)"/>
<path d="M0 0 C3.375 0.75 3.375 0.75 7 2 C7.66 3.32 8.32 4.64 9 6 C4.545 5.01 4.545 5.01 0 4 C0 2.68 0 1.36 0 0 Z " fill="#3B8A38" transform="translate(175,168)"/>
<path d="M0 0 C0.66 0.66 1.32 1.32 2 2 C-0.26185454 4.26185454 -1.96983561 5.03921617 -5 6 C-5.99 5.67 -6.98 5.34 -8 5 C-4.04 2.525 -4.04 2.525 0 0 Z " fill="#5FA338" transform="translate(441,336)"/>
<path d="M0 0 C2.31 1.65 4.62 3.3 7 5 C3.23375329 6.25541557 1.62811066 5.37061958 -2 4 C-1.34 2.68 -0.68 1.36 0 0 Z " fill="#519733" transform="translate(137,144)"/>
<path d="M0 0 C0.86625 0.3403125 0.86625 0.3403125 1.75 0.6875 C0.5625 2.25 0.5625 2.25 -1.25 3.6875 C-3.9375 3.375 -3.9375 3.375 -6.25 2.6875 C-2.80384615 -0.38942308 -2.80384615 -0.38942308 0 0 Z " fill="#6EAB36" transform="translate(439.25,340.3125)"/>
<path d="M0 0 C3.465 1.98 3.465 1.98 7 4 C6.67 4.66 6.34 5.32 6 6 C3.36 5.01 0.72 4.02 -2 3 C-1.34 2.01 -0.68 1.02 0 0 Z " fill="#60A033" transform="translate(89,117)"/>
</svg>
